<svg width="19" height="17" viewBox="0 0 19 17" fill="none" xmlns="http://www.w3.org/2000/svg">
<path d="M3.50854 1C3.19902 1.78787 2.16564 2.12559 1.65196 2.74933C1.55306 2.86943 1.5049 2.86998 1.67542 2.86998C1.85423 2.86998 2.04738 2.88959 2.22502 2.86327C2.54338 2.81611 2.8403 2.64571 3.1332 2.52145C3.45983 2.38288 3.80513 2.29653 4.13186 2.15952C4.28364 2.09587 4.42975 2.02803 4.56682 1.94896M4.56682 1.94896C4.71941 1.86094 4.86081 1.75899 4.98642 1.63338C4.99763 1.62217 5.17526 1.44852 5.12382 1.43566C5.03983 1.41466 4.80155 1.73235 4.76189 1.77078C4.69859 1.83212 4.63335 1.89128 4.56682 1.94896ZM4.56682 1.94896C4.35649 2.13132 4.13323 2.29898 3.91738 2.47453C3.43584 2.86619 2.92646 3.21994 2.4529 3.62065C2.24525 3.79636 1.98411 3.92493 1.84969 4.1669C1.80287 4.25117 1.77558 4.34814 1.69553 4.40818C1.64842 4.44351 1.34176 4.65365 1.51121 4.57909C2.64813 4.07885 3.57336 3.19043 4.70157 2.68901C4.96415 2.57231 5.23415 2.45985 5.50251 2.35724C5.88081 2.2126 6.19562 1.94997 6.56819 1.80094C6.68284 1.75508 6.69573 1.80313 6.62516 1.89812C6.3943 2.20891 6.07167 2.47899 5.78066 2.72923C4.66595 3.68777 3.46537 4.49893 2.26859 5.34317C1.90527 5.59947 1.57377 5.89054 1.25987 6.20443C1.22133 6.24298 1.17761 6.27737 1.14593 6.32173C1.13256 6.34044 1.18814 6.30239 1.20625 6.28821C1.48053 6.07356 1.74378 5.86955 2.04406 5.68835C3.63454 4.72857 5.3449 4.01992 6.96029 3.11126C7.63857 2.72973 8.46851 2.4834 9.19554 2.20644C9.32261 2.15803 9.38961 2.02899 9.50721 1.96515C9.56057 1.93618 9.64319 1.90135 9.72699 1.86139M9.72699 1.86139C9.84526 1.80498 9.96588 1.73835 10.0099 1.66354C10.0819 1.5412 9.82062 1.77517 9.72699 1.86139ZM9.72699 1.86139C9.70794 1.87894 9.69487 1.89142 9.69487 1.89142C9.35594 2.26965 9.00946 2.56164 8.52865 2.73593C8.07591 2.90005 7.72796 3.27814 7.35573 3.57373C6.40274 4.33051 5.53918 5.08884 4.72168 5.99331C4.70674 6.00983 4.69176 6.02627 4.67673 6.04263M4.67673 6.04263C4.08584 6.68565 3.4197 7.20256 2.69084 7.68232C2.54466 7.77854 2.45335 7.93511 2.3021 8.01074C2.20275 8.06041 1.94057 8.13256 1.87985 8.20846C1.849 8.24702 1.6738 8.28504 1.63186 8.27213C1.61146 8.26585 1.90666 7.98393 1.90666 7.98393C2.18882 7.73663 2.50066 7.53875 2.81819 7.34049C3.45965 6.93998 4.07022 6.49389 4.67673 6.04263ZM4.67673 6.04263C5.87414 5.15172 7.05574 4.2407 8.42812 3.62065C9.46161 3.15371 10.4735 2.66348 11.5548 2.32708C11.9092 2.21682 12.2554 2.01344 12.5501 1.78418C12.8756 1.53105 12.2842 2.18935 12.2485 2.21984C11.8063 2.59722 11.2865 2.82924 10.7673 3.07775C9.98999 3.44973 9.26747 3.89654 8.52865 4.33781C6.9903 5.25661 5.35438 5.94535 3.93749 7.05229C3.59356 7.32099 3.42717 7.64581 3.14661 7.98393C3.12193 8.01366 3.09643 8.04317 3.07017 8.07243M3.07017 8.07243C2.74469 8.43503 2.30318 8.7583 1.8832 8.98929C1.5623 9.16578 1.82275 9.02808 2.0206 8.87535L2.04073 8.85981C2.38036 8.59763 2.72296 8.33317 3.07017 8.07243ZM3.07017 8.07243C4.22215 7.20732 5.42495 6.38314 6.73911 5.81904C7.95846 5.29564 9.24916 4.98238 10.4355 4.37802C11.0387 4.07071 11.5907 3.66625 12.2083 3.38941C12.4401 3.28547 12.6702 3.04023 12.8584 2.86998C13.0093 2.73346 13.4387 2.34973 13.6426 2.32708C13.7635 2.31365 14.2264 1.77652 13.8973 2.19638C13.4477 2.77002 12.8274 3.25626 12.2061 3.69826M12.2061 3.69826C11.9271 3.89672 11.6479 4.08626 11.3839 4.27078C10.7434 4.71845 10.099 5.12233 9.44176 5.49342M12.2061 3.69826C13.5875 3.10981 15.008 2.63323 16.337 1.91153C16.4486 1.85091 16.7927 1.68917 16.6855 1.75737C16.2861 2.01157 15.8792 2.53431 15.5997 2.90349C15.3603 3.21964 15.2306 3.59881 14.8725 3.80496C13.9971 4.30897 12.9542 4.36016 12.1077 4.95108C10.6153 5.99297 8.94902 6.58356 7.28661 7.25333M12.2061 3.69826C11.9187 3.82064 11.6331 3.94785 11.3504 4.08312C10.5993 4.44243 10.04 4.95584 9.44176 5.49342M9.44176 5.49342C8.43654 6.06098 7.40119 6.55185 6.30345 7.00537C5.69053 7.2586 5.22128 7.51897 4.74178 7.97387C4.17703 8.50967 3.57208 8.89086 2.91617 9.30417L2.90532 9.31101C2.53936 9.54161 2.09725 9.71023 1.78936 10.0181C1.60901 10.1985 1.73805 10.0621 1.87314 9.96114C2.30746 9.63655 2.80995 9.40179 3.28736 9.15015C4.17371 8.68294 5.06241 8.22415 5.97503 7.80966C6.40978 7.61222 6.84806 7.43002 7.28661 7.25333M9.44176 5.49342C9.36605 5.56145 9.28972 5.62986 9.2123 5.6984C8.66582 6.18217 8.07436 6.61055 7.50988 7.0724C7.43567 7.13312 7.36123 7.1934 7.28661 7.25333M7.28661 7.25333C6.3269 8.02405 5.33688 8.73585 4.41336 9.55229C4.35181 9.60671 4.29186 9.66428 4.23253 9.7233M4.23253 9.7233C4.00092 9.9537 3.77887 10.2063 3.50854 10.38C3.39614 10.4523 3.34686 10.5485 3.25384 10.6381C3.10368 10.7827 2.82174 10.8602 2.63052 10.9263C2.2956 11.042 1.97493 11.1862 1.62516 11.2547C1.48114 11.2829 0.96548 11.4235 1.00183 11.3955C1.51344 11.0008 2.00371 10.6696 2.60371 10.4069C3.14173 10.1712 3.68538 9.94388 4.23253 9.7233ZM4.23253 9.7233C5.34122 9.27633 6.46423 8.85713 7.58361 8.4531C9.2288 7.85927 11.0704 7.60272 12.4697 6.48929C13.0916 5.99444 13.6454 5.45738 14.3061 5.0114C14.8859 4.62004 15.473 4.24162 16.0421 3.83513C16.3115 3.6427 16.6552 3.53955 16.9301 3.32574C16.951 3.30949 17.1283 3.21575 17.1011 3.27212C16.9686 3.54586 16.6208 3.80206 16.404 3.98928C15.5393 4.73606 14.5941 5.3841 13.656 6.03352C12.4482 6.86969 11.2468 7.71457 10.0434 8.55698C9.57235 8.88672 9.09482 9.28045 8.56216 9.50873C8.40829 9.57467 8.25274 9.63439 8.09593 9.68943M8.09593 9.68943C7.86931 9.76897 7.64007 9.83873 7.40949 9.90342M8.09593 9.68943C7.86678 9.75972 7.63786 9.83067 7.40949 9.90342M8.09593 9.68943C8.98416 9.41695 9.87569 9.15432 10.7505 8.83513C11.0705 8.71838 11.1967 8.6026 11.4509 8.41958C11.7141 8.23009 12.0223 8.13408 12.3289 8.04425C12.8814 7.88241 13.4299 7.62446 13.9442 7.3673C14.4485 7.11518 14.8551 6.66768 15.3752 6.45577C15.404 6.44402 15.4324 6.43236 15.4605 6.42075M7.40949 9.90342C6.44193 10.1748 5.45082 10.3567 4.53066 10.7956C4.14476 10.9796 3.759 11.1439 3.36779 11.315C3.10293 11.4309 2.77985 11.4999 2.54339 11.6636C2.24267 11.8717 2.03268 12.1262 1.70558 12.307C1.47551 12.4341 1.22753 12.6098 1.70558 12.4142C3.27958 11.7703 4.71835 10.8482 6.32355 10.2695C6.68317 10.1398 7.04562 10.0193 7.40949 9.90342ZM15.4605 6.42075C15.7151 6.31521 15.9366 6.21355 16.1521 6.07628M15.4605 6.42075C15.3881 6.56032 15.3149 6.699 15.2415 6.83731M15.4605 6.42075C15.4925 6.35889 15.5245 6.29685 15.5561 6.23459C15.7414 5.87076 15.8178 5.14366 16.2364 4.93432C16.6794 4.71287 16.6151 4.99905 16.4744 5.40349C16.3906 5.64431 16.2876 5.86986 16.1521 6.07628M16.1521 6.07628C16.204 6.04322 16.2555 6.0081 16.3071 5.97036M16.1521 6.07628C16.1426 6.09072 16.133 6.10507 16.1232 6.11932M16.3071 5.97036C16.3238 5.95818 16.3404 5.94573 16.3571 5.93298C16.4722 5.84493 16.7181 5.60412 16.4174 5.87266C16.3808 5.90539 16.344 5.93795 16.3071 5.97036ZM16.3071 5.97036C16.2753 5.99833 16.2434 6.02619 16.2113 6.05392M16.2113 6.05392C16.1761 6.0845 16.1406 6.11493 16.1051 6.14521M16.2113 6.05392C16.182 6.07555 16.1526 6.09735 16.1232 6.11932M16.2113 6.05392C16.2421 6.0313 16.2728 6.00886 16.3035 5.9866C16.5082 5.83808 16.0558 6.42978 15.9013 6.63004C15.4904 7.16277 15.0395 7.66504 14.5632 8.14147M16.1051 6.14521C15.8523 6.36087 15.5938 6.56924 15.33 6.77025M16.1051 6.14521C16.1112 6.13662 16.1172 6.12799 16.1232 6.11932M16.1051 6.14521C16.0321 6.24842 15.9502 6.34652 15.8578 6.43902C15.6365 6.66029 15.3994 6.85479 15.1399 7.02827M15.33 6.77025C15.3006 6.79269 15.271 6.81505 15.2415 6.83731M15.33 6.77025C15.2945 6.80289 15.2593 6.8358 15.2246 6.86897M15.33 6.77025C15.5811 6.53966 15.8517 6.32234 16.1232 6.11932M15.2415 6.83731C14.2902 7.55303 13.2707 8.17357 12.1949 8.69438C11.0507 9.2483 9.8766 9.71725 8.74983 10.3097C8.16836 10.6154 7.60844 10.8547 7.0072 11.1073C6.50108 11.3198 6.06998 11.6264 5.59299 11.8914C5.19578 12.1121 4.75858 12.2727 4.33964 12.4477C3.89869 12.632 3.10243 12.7836 2.78132 13.1582C2.56359 13.4122 2.12121 13.4128 1.87985 13.6542C1.79207 13.742 2.11894 13.5873 2.23843 13.5536C3.14266 13.2991 4.05137 13.063 4.96631 12.8499C5.07253 12.8251 5.17893 12.8008 5.28549 12.7767M15.2415 6.83731C15.2359 6.84787 15.2302 6.85842 15.2246 6.86897M5.28549 12.7767C6.80108 12.4345 8.34832 12.1547 9.85228 11.7426M5.28549 12.7767C5.50423 12.649 5.71625 12.5105 5.91471 12.3707C6.29484 12.1028 6.61843 11.816 7.06082 11.6502C7.60749 11.4452 8.17197 11.2999 8.72302 11.1073C10.3689 10.5319 12.0322 9.89767 13.5733 9.06793M5.28549 12.7767C5.0359 12.9225 4.77755 13.0543 4.5206 13.1582C4.08895 13.3328 3.61205 13.4018 3.22033 13.6676C2.99751 13.8188 2.83904 14.0637 2.63387 14.2373C2.51143 14.3409 2.2228 14.5044 2.14794 14.6327C2.01906 14.8537 2.63003 14.4615 2.87181 14.378C3.86135 14.0363 4.87747 13.7588 5.8946 13.5134C6.01266 13.4849 6.13127 13.4572 6.25035 13.43M9.85228 11.7426C10.6689 11.5188 11.4727 11.256 12.2518 10.9229C12.6578 10.7494 13.1333 10.4808 13.4616 10.1689C13.6374 10.0019 13.8331 9.89883 14.038 9.77012C14.3937 9.54679 14.6917 9.22754 14.9771 8.92178L14.9797 8.91891C15.3456 8.52693 15.7183 8.1703 16.1114 7.83462M9.85228 11.7426C11.1813 10.9842 12.4289 10.0758 13.5733 9.06793M9.85228 11.7426C9.27716 12.0708 8.6868 12.3709 8.08294 12.6388C7.55208 12.8743 6.70121 13.0041 6.25035 13.43M16.1114 7.83462C16.4341 7.55902 16.7704 7.29755 17.1279 7.04224C17.151 7.02571 17.178 7.00581 17.2077 6.98342M16.1114 7.83462C16.4639 7.60865 16.8187 7.38652 17.1681 7.15953C17.4399 6.98295 17.5496 6.80613 17.3826 7.11931C17.2924 7.28842 17.1249 7.55351 16.9603 7.64881C16.4977 7.91663 16.0533 8.471 15.7204 8.86865C15.2849 9.38877 14.8976 9.95092 14.4871 10.4906C14.3866 10.6228 14.0411 10.8592 14.2023 10.8995C14.238 10.9084 14.6914 10.5792 14.7753 10.5409C15.4737 10.2221 16.1148 9.89301 16.7257 9.42495C16.8846 9.30323 17.6238 8.63705 17.6238 9.19036C17.6238 9.53094 17.56 9.86879 17.4965 10.2024C17.3883 10.7704 16.8397 11.1374 16.4174 11.4692C16.2406 11.6081 16.1411 11.8056 15.9348 11.9317C15.7245 12.0602 15.533 12.2558 15.3082 12.3941C15.0284 12.5663 14.6916 12.6249 14.4067 12.7929C14.1871 12.9224 14.0285 13.0554 13.7834 13.1381C13.5282 13.2242 13.273 13.3006 13.0174 13.3689M16.1114 7.83462C15.4472 8.26031 14.7907 8.69958 14.1922 9.21047C13.8334 9.51678 14.2599 8.79841 14.3162 8.67093C14.3204 8.66132 14.3247 8.65172 14.329 8.64213M17.2077 6.98342C17.5094 6.75652 18.0976 6.27447 17.8852 6.46918C17.677 6.6601 17.4476 6.82847 17.2077 6.98342ZM17.2077 6.98342C16.7978 7.24819 16.3571 7.4738 15.9382 7.70578C15.3948 8.00664 14.865 8.32988 14.329 8.64213M14.329 8.64213C14.1624 8.73914 13.9953 8.83508 13.8269 8.92897C13.7428 8.9759 13.6582 9.02221 13.5733 9.06793M14.329 8.64213C14.4041 8.47301 14.4825 8.3064 14.5632 8.14147M13.5733 9.06793C13.6257 9.02182 13.6778 8.9755 13.7297 8.92897C14.014 8.67424 14.2927 8.41202 14.5632 8.14147M6.25035 13.43C8.35821 12.9485 10.6141 12.6448 12.5702 11.7038C13.2711 11.3666 13.8881 11.0382 14.6212 10.7654C15.2563 10.5291 15.8785 10.3498 16.4777 10.0617C16.5805 10.0123 16.6766 9.98245 16.7621 9.9326M6.25035 13.43C6.21785 13.4607 6.18742 13.4929 6.15935 13.5268C5.84333 13.9087 5.44701 14.324 5.14012 14.771M16.7621 9.9326C16.8214 9.89804 16.8756 9.85386 16.9234 9.78688C16.978 9.71045 16.8717 9.82156 16.7621 9.9326ZM16.7621 9.9326C16.7057 9.98975 16.6484 10.0469 16.6118 10.0784C15.8552 10.7299 14.9509 11.2329 14.0883 11.7239C12.4125 12.6778 10.679 13.4676 8.84211 14.0221M8.84211 14.0221C8.58113 14.1009 8.31806 14.1749 8.05278 14.244C7.53355 14.3792 6.98515 14.4718 6.49782 14.7065C5.9914 14.9503 5.43956 15.0817 4.88268 15.2016M8.84211 14.0221C8.67785 14.0398 8.51306 14.0578 8.34769 14.0764C7.2442 14.2008 6.18414 14.4507 5.14012 14.771M8.84211 14.0221C9.23346 13.9799 9.6218 13.9392 10.0078 13.8947M4.88268 15.2016C4.31031 15.3249 3.73263 15.4361 3.19352 15.6448C3.06181 15.6958 2.94495 15.693 2.81484 15.7219C2.7834 15.7289 2.64743 15.8345 2.63387 15.8291C2.41667 15.7422 2.99449 15.5155 3.21363 15.4337C3.85397 15.1945 4.49397 14.9693 5.14012 14.771M4.88268 15.2016C4.95617 15.055 5.04373 14.9115 5.14012 14.771M4.88268 15.2016C4.81986 15.327 4.76733 15.4546 4.72838 15.5845C4.69507 15.6955 4.85687 15.6573 4.91605 15.6481C6.13467 15.4607 7.33961 14.945 8.48174 14.4987C8.99093 14.2997 9.49858 14.0952 10.0078 13.8947M10.0078 13.8947C11.0235 13.7777 12.0227 13.6346 13.0174 13.3689M10.0078 13.8947C10.6716 13.6333 11.3381 13.3786 12.0139 13.1515C12.1856 13.0938 12.3416 12.9021 12.5099 12.8834C12.7747 12.854 13.0763 12.6577 13.3376 12.5818C13.6946 12.4781 14.0563 12.2949 14.41 12.2065C14.4852 12.1877 14.3301 12.342 14.2726 12.3941C13.9183 12.7156 13.5294 13.0246 13.1332 13.2922C13.0949 13.3181 13.0563 13.3436 13.0174 13.3689M13.0174 13.3689C12.4511 13.7358 11.8161 14.0373 11.1699 14.294M14.5632 8.14147C14.7474 7.76488 14.9435 7.39706 15.1399 7.02827M15.1399 7.02827C15.1681 6.9752 15.1964 6.92211 15.2246 6.86897M15.1399 7.02827C15.1312 7.03406 15.1225 7.03984 15.1138 7.04559C14.9927 7.12538 14.8711 7.22714 15.0468 7.04559C15.1045 6.98592 15.1639 6.92704 15.2246 6.86897M11.1699 14.294C10.7673 14.4539 10.3604 14.5964 9.96297 14.7266C9.48175 14.8841 9.04419 15.0994 8.52865 15.1622C8.48527 15.1675 8.44098 15.1692 8.39635 15.1697M11.1699 14.294C10.674 14.4408 10.1803 14.5858 9.69823 14.7433C9.26784 14.8839 8.83602 15.047 8.39635 15.1697M11.1699 14.294C12.4078 13.9274 13.6592 13.5494 14.7753 12.937C15.0113 12.8075 15.2163 12.6327 15.4523 12.5081C15.7382 12.357 15.9893 12.1443 16.2867 12.0154C16.5675 11.8938 16.5605 12.0057 16.3571 12.2366C15.5681 13.1323 14.2777 13.6829 13.2338 14.1971C12.4235 14.5961 11.5391 14.8848 10.7539 15.3298C10.6277 15.4012 10.6183 15.4788 10.5293 15.5677C10.5095 15.5876 10.3724 15.67 10.4858 15.6046C10.8677 15.3842 11.2558 15.1785 11.652 14.9846C12.8768 14.3851 14.1396 13.8445 15.3048 13.1314C15.8339 12.8076 16.3344 12.5272 16.9067 12.2936C17.6915 11.9732 15.5494 13.3127 14.8323 13.7648C13.9656 14.3111 13.0936 14.823 12.1748 15.2762C11.8238 15.4492 11.4203 15.6068 11.1091 15.8526C11.0506 15.8987 11.7232 15.5829 11.8329 15.5242C12.9045 14.9506 13.995 14.474 15.1104 13.996C15.5827 13.7936 16.0959 13.5703 16.5112 13.2587C16.6257 13.1729 16.7127 13.0642 16.8531 13.0174C17.269 12.8788 16.4524 13.4206 16.4308 13.4363C16.2929 13.537 16.1552 13.6421 16.0172 13.7492M8.39635 15.1697C8.22994 15.1712 8.05873 15.1545 7.91203 15.236C7.83267 15.28 7.73682 15.3191 7.93884 15.2795C8.09245 15.2494 8.24486 15.2119 8.39635 15.1697ZM16.0172 13.7492C15.465 14.1776 14.9078 14.6378 14.3095 14.9679C14.0931 15.0873 14.4909 14.8089 14.5139 14.7869C14.9703 14.3493 15.4523 14.0037 16.0172 13.7492ZM16.0172 13.7492C16.1188 13.7034 16.223 13.6606 16.3303 13.6207C16.7739 13.4557 16.5468 13.6679 16.2859 13.8767M16.2859 13.8767C16.1403 13.9932 15.9842 14.1086 15.9281 14.1569C15.6632 14.385 15.4174 14.6313 15.1574 14.864C15.1176 14.8995 15.41 14.5689 15.4321 14.549C15.6845 14.321 15.9742 14.079 16.2859 13.8767ZM16.2859 13.8767C16.5823 13.6843 16.8986 13.5277 17.2217 13.4531C17.4426 13.4021 17.3566 13.5096 17.2418 13.614C16.8336 13.9851 16.3796 14.3102 15.9482 14.6528C15.8214 14.7536 15.6953 14.8554 15.5693 14.9573M15.5693 14.9573C15.2341 15.2286 14.8995 15.5012 14.5541 15.7587C14.3159 15.9364 14.566 15.7263 14.5977 15.7018C14.9192 15.4529 15.232 15.1863 15.5693 14.9573ZM15.5693 14.9573C15.723 14.853 15.8818 14.7564 16.0488 14.6729C16.1075 14.6436 16.6753 14.3678 16.6453 14.5523C16.6006 14.8271 16.2756 15.1636 16.2901 15.4236C16.2911 15.4426 16.5416 15.2562 16.5515 15.2494C16.6742 15.1643 16.8087 15.1041 16.9402 15.0349C17.0234 14.9911 16.7528 15.055 16.6587 15.055M6.04206 4.13675C5.82807 4.20095 5.55576 4.53124 5.38857 4.65619C5.06684 4.89664 4.51839 5.13147 4.29943 5.48729C4.21185 5.6296 4.00115 5.62473 3.93079 5.76544M15.4523 4.86061C14.2098 5.30147 12.9992 5.83198 11.7592 6.28153C11.4778 6.38358 10.6843 6.78358 10.9181 6.59654C11.1316 6.42575 11.3313 6.23844 11.5447 6.06705C12.0498 5.66148 13.5912 4.48972 13.1332 4.94774C12.943 5.138 12.727 5.3003 12.5367 5.49064C12.3467 5.68064 12.2578 5.82877 12.5233 5.54426C12.8213 5.22493 13.2739 4.95847 13.522 4.60592C13.735 4.30311 13.9351 4.03836 14.1855 3.76142C14.3702 3.55719 14.5459 3.34207 14.715 3.12469C14.8324 2.97368 14.3374 3.23568 14.3196 3.24533C13.7447 3.55565 13.2425 3.92829 12.6171 4.13675M15.2713 4.92093C14.9547 5.15543 14.7156 5.48436 14.4201 5.74533C13.762 6.3265 13.0304 6.8446 12.2887 7.3137C11.9084 7.55425 12.2959 7.34656 12.4496 7.27349C13.0082 7.0078 13.4863 6.59783 14.0448 6.32174C14.6393 6.02786 15.2526 5.76953 15.8544 5.49064C15.9157 5.46224 15.6397 5.74741 15.6131 5.77214C15.3415 6.02463 14.7284 6.43251 14.7284 6.85123" stroke="#818CF8" stroke-linecap="round"/>
</svg>
